<?xml version="1.0" encoding="UTF-8"?>
<!DOCTYPE svg PUBLIC "-//W3C//DTD SVG 1.1//EN" "http://www.w3.org/Graphics/SVG/1.1/DTD/svg11.dtd">
<svg xmlns="http://www.w3.org/2000/svg" version="1.1" width="64px" height="64px" style="shape-rendering:geometricPrecision; text-rendering:geometricPrecision; image-rendering:optimizeQuality; fill-rule:evenodd; clip-rule:evenodd" xmlns:xlink="http://www.w3.org/1999/xlink">
<g><path style="opacity:0.633" fill="#ffffff" d="M 31.5,3.5 C 50.7785,2.60973 57.2785,11.2764 51,29.5C 44.0554,36.0693 36.2221,37.2359 27.5,33C 20.9307,26.0554 19.7641,18.2221 24,9.5C 26.1141,6.87922 28.6141,4.87922 31.5,3.5 Z M 32.5,6.5 C 45.6505,5.48298 51.4839,11.483 50,24.5C 46.2685,31.78 40.4352,34.28 32.5,32C 25.22,28.2685 22.72,22.4352 25,14.5C 27.0282,11.3078 29.5282,8.64111 32.5,6.5 Z"/></g>
<g><path style="opacity:0.745" fill="#ffffff" d="M 38.5,15.5 C 38.5,16.5 38.5,17.5 38.5,18.5C 39.8221,18.33 40.9887,18.6634 42,19.5C 42.7581,21.7695 42.5914,23.9361 41.5,26C 39.9238,26.4396 38.5904,27.273 37.5,28.5C 36.4096,27.273 35.0762,26.4396 33.5,26C 32.2528,24.5064 32.2528,23.0064 33.5,21.5C 34.4776,21.9767 35.3109,22.6433 36,23.5C 36.4169,22.244 37.2502,21.5774 38.5,21.5C 33.0537,21.5318 31.2204,18.8652 33,13.5C 34.6934,12.8155 36.1934,11.8155 37.5,10.5C 38.5904,11.727 39.9238,12.5604 41.5,13C 42.9268,17.3741 41.9268,18.2074 38.5,15.5 Z"/></g>
<g><path style="opacity:0.665" fill="#ffffff" d="M 10.5,35.5 C 18.5222,34.5627 25.8555,36.396 32.5,41C 36.6967,40.8005 40.3633,41.9671 43.5,44.5C 48.9726,42.2133 54.6393,41.3799 60.5,42C 61.6023,44.4009 61.769,46.9009 61,49.5C 52.3842,55.0585 43.2175,59.3919 33.5,62.5C 27.1951,60.8511 21.1951,58.3511 15.5,55C 11.1428,55.1746 6.80945,55.508 2.5,56C 1.19126,49.8888 1.19126,43.7221 2.5,37.5C 5.31059,36.9204 7.97726,36.2537 10.5,35.5 Z M 11.5,38.5 C 18.7953,37.9865 25.4619,39.8198 31.5,44C 33.8333,44.3333 36.1667,44.6667 38.5,45C 39.7908,47.0902 39.1242,48.4236 36.5,49C 32.0957,49.2576 27.7624,48.7576 23.5,47.5C 23.5,48.5 23.5,49.5 23.5,50.5C 28.0399,52.1508 32.7065,52.6508 37.5,52C 43.5871,47.2193 50.5871,44.7193 58.5,44.5C 58.5479,47.2919 57.2146,49.1253 54.5,50C 47.7167,53.7264 40.7167,56.8931 33.5,59.5C 27.6191,57.5612 21.9524,55.0612 16.5,52C 14.2305,51.2419 12.0639,51.4086 10,52.5C 8.84686,50.503 7.34686,50.1696 5.5,51.5C 6.91893,53.1266 6.5856,53.6266 4.5,53C 3.37052,48.9215 3.20385,44.7548 4,40.5C 6.60731,39.8767 9.10731,39.21 11.5,38.5 Z"/></g>
<g><path style="opacity:0.883" fill="#ffffff" d="M 5.5,40.5 C 6.97782,40.238 8.31116,40.5713 9.5,41.5C 8.83333,41.8333 8.16667,42.1667 7.5,42.5C 6.28665,42.2528 5.61998,41.5862 5.5,40.5 Z"/></g>
<g><path style="opacity:0.883" fill="#ffffff" d="M 5.5,45.5 C 6.97782,45.238 8.31116,45.5713 9.5,46.5C 8.83333,46.8333 8.16667,47.1667 7.5,47.5C 6.28665,47.2528 5.61998,46.5862 5.5,45.5 Z"/></g>
</svg>
