<?xml version="1.0" encoding="UTF-8"?>
<!DOCTYPE svg PUBLIC "-//W3C//DTD SVG 1.1//EN" "http://www.w3.org/Graphics/SVG/1.1/DTD/svg11.dtd">
<svg xmlns="http://www.w3.org/2000/svg" version="1.1" width="100px" height="100px" style="shape-rendering:geometricPrecision; text-rendering:geometricPrecision; image-rendering:optimizeQuality; fill-rule:evenodd; clip-rule:evenodd" xmlns:xlink="http://www.w3.org/1999/xlink">
<g><path style="opacity:0.79" fill="#ffffff" d="M 30.5,3.5 C 42.3244,1.8236 47.1577,6.8236 45,18.5C 42.3077,20.2117 41.9744,22.2117 44,24.5C 48.7477,23.3651 53.581,23.1985 58.5,24C 61.6978,24.8485 64.5311,26.3485 67,28.5C 68.8333,26.6667 70.6667,24.8333 72.5,23C 69.5246,10.9736 74.1912,5.97357 86.5,8C 91.2745,11.6551 92.7745,16.4884 91,22.5C 87.0808,27.4724 82.0808,28.8057 76,26.5C 74.1667,28.3333 72.3333,30.1667 70.5,32C 72.6515,34.4689 74.1515,37.3022 75,40.5C 75.6667,45.1667 75.6667,49.8333 75,54.5C 73.9723,56.8437 73.3057,59.1771 73,61.5C 76.165,66.1743 80.3317,67.5077 85.5,65.5C 94.3898,66.5982 97.5565,71.5982 95,80.5C 91.3449,85.2745 86.5116,86.7745 80.5,85C 78.6667,83.8333 77.1667,82.3333 76,80.5C 77.3322,73.4233 74.8322,68.4233 68.5,65.5C 63.1143,69.9062 56.9476,72.2396 50,72.5C 49.3333,73.5 49.3333,74.5 50,75.5C 55.2248,79.1696 56.8914,84.1696 55,90.5C 50.3887,95.9164 44.8887,96.9164 38.5,93.5C 34.9255,88.7465 34.5921,83.7465 37.5,78.5C 39.2461,76.1459 41.5794,75.1459 44.5,75.5C 44.5,73.8333 44.5,72.1667 44.5,70.5C 37.783,68.6293 32.6164,64.6293 29,58.5C 27.3333,59.1667 25.6667,59.8333 24,60.5C 22.9545,69.8589 17.7879,73.3589 8.5,71C 3.72548,67.3449 2.22548,62.5116 4,56.5C 7.65505,51.7255 12.4884,50.2255 18.5,52C 19.9814,52.9803 21.3147,54.147 22.5,55.5C 24.0589,54.9264 25.5589,54.2598 27,53.5C 27.1593,48.0838 27.826,42.7504 29,37.5C 31.5955,33.0685 34.7622,29.0685 38.5,25.5C 38.2907,24.914 37.9574,24.414 37.5,24C 27.5012,23.5237 23.6679,18.3571 26,8.5C 27.3657,6.63834 28.8657,4.97167 30.5,3.5 Z M 32.5,8.5 C 40.4863,7.99804 42.4863,11.1647 38.5,18C 30.424,18.8047 28.424,15.638 32.5,8.5 Z M 78.5,12.5 C 86.4863,11.998 88.4863,15.1647 84.5,22C 76.424,22.8047 74.424,19.638 78.5,12.5 Z M 45.5,28.5 C 67.0084,28.1975 74.3418,38.1975 67.5,58.5C 63.9587,59.0523 60.6253,58.2189 57.5,56C 59.4019,52.9384 61.0685,49.7717 62.5,46.5C 63.6692,34.5756 58.3358,29.7422 46.5,32C 44.714,32.7845 43.214,33.9512 42,35.5C 39.1506,42.9982 40.3172,49.8315 45.5,56C 42.3747,58.2189 39.0413,59.0523 35.5,58.5C 29.1779,45.1672 32.5112,35.1672 45.5,28.5 Z M 47.5,36.5 C 50.6021,36.154 53.4355,36.8207 56,38.5C 55.166,45.397 54.4993,52.397 54,59.5C 56.2932,61.3723 58.7932,62.8723 61.5,64C 54.8333,67.3333 48.1667,67.3333 41.5,64C 44.2068,62.8723 46.7068,61.3723 49,59.5C 49.6667,56.8333 49.6667,54.1667 49,51.5C 46.389,46.7237 45.889,41.7237 47.5,36.5 Z M 10.5,56.5 C 18.4863,55.998 20.4863,59.1647 16.5,66C 8.42402,66.8047 6.42402,63.638 10.5,56.5 Z M 82.5,70.5 C 90.4863,69.998 92.4863,73.1647 88.5,80C 80.424,80.8047 78.424,77.638 82.5,70.5 Z M 42.5,80.5 C 50.4863,79.998 52.4863,83.1647 48.5,90C 40.424,90.8047 38.424,87.638 42.5,80.5 Z"/></g>
</svg>
