<?xml version="1.0" encoding="UTF-8"?>
<!DOCTYPE svg PUBLIC "-//W3C//DTD SVG 1.1//EN" "http://www.w3.org/Graphics/SVG/1.1/DTD/svg11.dtd">
<svg xmlns="http://www.w3.org/2000/svg" version="1.1" width="64px" height="64px" style="shape-rendering:geometricPrecision; text-rendering:geometricPrecision; image-rendering:optimizeQuality; fill-rule:evenodd; clip-rule:evenodd" xmlns:xlink="http://www.w3.org/1999/xlink">
<g><path style="opacity:0.722" fill="#ffffff" d="M 21.5,-0.5 C 24.1667,-0.5 26.8333,-0.5 29.5,-0.5C 31.7415,0.620727 34.0748,1.78739 36.5,3C 37.9295,4.88026 37.5962,6.38026 35.5,7.5C 27.7412,1.76518 20.5745,2.43184 14,9.5C 13.1376,11.087 12.4709,12.7536 12,14.5C 11.7424,18.9043 12.2424,23.2376 13.5,27.5C 11.6096,27.7035 10.1096,27.0368 9,25.5C 5.44384,12.9488 9.61051,4.28217 21.5,-0.5 Z"/></g>
<g><path style="opacity:0.722" fill="#ffffff" d="M 52.5,3.5 C 54.5,3.5 56.5,3.5 58.5,3.5C 58.5,8.16667 58.5,12.8333 58.5,17.5C 54.2589,18.2502 50.9255,16.9169 48.5,13.5C 45.9135,12.52 43.2469,12.1866 40.5,12.5C 40.5,11.1667 40.5,9.83333 40.5,8.5C 43.2469,8.81335 45.9135,8.48002 48.5,7.5C 49.5487,5.78445 50.882,4.45111 52.5,3.5 Z M 53.5,7.5 C 54.6225,9.28841 54.7891,11.2884 54,13.5C 52.2002,11.6349 52.0336,9.63486 53.5,7.5 Z"/></g>
<g><path style="opacity:0.637" fill="#ffffff" d="M 23.5,8.5 C 24.8333,8.5 26.1667,8.5 27.5,8.5C 26.4482,13.5376 27.9482,17.5376 32,20.5C 32.49,21.7932 32.6567,23.1266 32.5,24.5C 24.0316,22.5977 21.0316,17.2644 23.5,8.5 Z"/></g>
<g><path style="opacity:0.719" fill="#ffffff" d="M 63.5,49.5 C 63.5,51.5 63.5,53.5 63.5,55.5C 61.8333,59.1667 59.1667,61.8333 55.5,63.5C 53.5,63.5 51.5,63.5 49.5,63.5C 47.3331,62.802 45.4998,61.4687 44,59.5C 43.3828,58.5509 43.5494,57.7175 44.5,57C 47.1607,57.4075 49.8273,58.2408 52.5,59.5C 55.1868,59.1592 57.1868,57.8258 58.5,55.5C 52.8722,54.5046 47.2055,54.1712 41.5,54.5C 41.0216,50.6625 42.0216,47.3291 44.5,44.5C 43.5,44.5 42.5,44.5 41.5,44.5C 42.5405,36.6704 44.3738,29.0037 47,21.5C 49.4753,17.5946 52.142,17.5946 55,21.5C 55.8755,27.785 55.3755,33.9517 53.5,40C 57.998,41.9993 61.3313,45.166 63.5,49.5 Z M 44.5,44.5 C 46.5081,37.472 48.6748,30.472 51,23.5C 51.7243,29.3134 51.0577,34.9801 49,40.5C 47.7912,42.1835 46.2912,43.5168 44.5,44.5 Z M 50.5,45.5 C 53.99,45.245 56.6567,46.5783 58.5,49.5C 54.5,50.8333 50.5,50.8333 46.5,49.5C 47.5487,47.7844 48.882,46.4511 50.5,45.5 Z"/></g>
<g><path style="opacity:0.609" fill="#ffffff" d="M -0.5,30.5 C 2.5,30.5 5.5,30.5 8.5,30.5C 8.5,31.8333 8.5,33.1667 8.5,34.5C 5.5,34.5 2.5,34.5 -0.5,34.5C -0.5,33.1667 -0.5,31.8333 -0.5,30.5 Z"/></g>
<g><path style="opacity:0.718" fill="#ffffff" d="M 13.5,63.5 C 11.5,63.5 9.5,63.5 7.5,63.5C 5.33314,62.802 3.49981,61.4687 2,59.5C 1.38277,58.5509 1.54943,57.7175 2.5,57C 5.16066,57.4075 7.82733,58.2408 10.5,59.5C 13.1868,59.1592 15.1868,57.8258 16.5,55.5C 10.8722,54.5046 5.20555,54.1712 -0.5,54.5C -0.5,51.5 -0.5,48.5 -0.5,45.5C 0.539241,43.0987 1.87257,40.7654 3.5,38.5C 4.68884,37.5713 6.02218,37.238 7.5,37.5C 5.88639,41.7324 4.55306,46.0657 3.5,50.5C 10.8333,50.5 18.1667,50.5 25.5,50.5C 26.4193,45.4057 27.7527,40.4057 29.5,35.5C 24.544,34.5059 19.544,34.1725 14.5,34.5C 14.5,33.1667 14.5,31.8333 14.5,30.5C 20.1764,30.3339 25.8431,30.5006 31.5,31C 32.7185,32.4382 33.3852,34.1049 33.5,36C 31.8851,40.8201 30.7184,45.6534 30,50.5C 32.9435,48.7774 36.1102,47.7774 39.5,47.5C 39.7035,49.3904 39.0368,50.8904 37.5,52C 32.3161,53.7541 26.9828,54.9208 21.5,55.5C 19.7584,59.2419 17.0917,61.9086 13.5,63.5 Z"/></g>
</svg>
