<?xml version="1.0" encoding="UTF-8"?>
<!DOCTYPE svg PUBLIC "-//W3C//DTD SVG 1.1//EN" "http://www.w3.org/Graphics/SVG/1.1/DTD/svg11.dtd">
<svg xmlns="http://www.w3.org/2000/svg" version="1.1" width="100px" height="100px" style="shape-rendering:geometricPrecision; text-rendering:geometricPrecision; image-rendering:optimizeQuality; fill-rule:evenodd; clip-rule:evenodd" xmlns:xlink="http://www.w3.org/1999/xlink">
<g><path style="opacity:0.894" fill="#ffffff" d="M 99.5,49.5 C 99.5,58.8333 99.5,68.1667 99.5,77.5C 97.1799,79.2261 94.5133,79.8928 91.5,79.5C 88.5153,89.3204 82.182,92.1537 72.5,88C 69.4044,85.9713 67.7377,83.138 67.5,79.5C 57.5,79.5 47.5,79.5 37.5,79.5C 34.5153,89.3204 28.182,92.1537 18.5,88C 15.4044,85.9713 13.7377,83.138 13.5,79.5C 8.5329,80.038 3.86624,79.3713 -0.5,77.5C -0.5,57.5 -0.5,37.5 -0.5,17.5C 0.28913,17.2172 0.955796,16.7172 1.5,16C 20.8333,15.3333 40.1667,15.3333 59.5,16C 60,16.5 60.5,17 61,17.5C 61.4988,21.4862 61.6655,25.4862 61.5,29.5C 69.6112,29.0648 77.6112,29.5648 85.5,31C 90.5515,36.9659 95.2182,43.1325 99.5,49.5 Z M 5.5,19.5 C 22.17,19.3334 38.8367,19.5001 55.5,20C 56,20.5 56.5,21 57,21.5C 57.4999,39.4969 57.6666,57.4969 57.5,75.5C 50.8333,75.5 44.1667,75.5 37.5,75.5C 34.5153,65.6796 28.182,62.8463 18.5,67C 15.4044,69.0287 13.7377,71.862 13.5,75.5C 9.99294,76.0065 6.82627,75.3398 4,73.5C 3.33333,56.1667 3.33333,38.8333 4,21.5C 4.71719,20.9558 5.21719,20.2891 5.5,19.5 Z M 24.5,28.5 C 41.7649,28.2567 47.5982,36.2567 42,52.5C 35.7488,59.0107 28.5821,60.1773 20.5,56C 13.9893,49.7488 12.8227,42.5821 17,34.5C 19.1141,31.8792 21.6141,29.8792 24.5,28.5 Z M 63.5,33.5 C 66.1667,33.5 68.8333,33.5 71.5,33.5C 71.3337,40.8409 71.5003,48.1742 72,55.5C 72.5,56 73,56.5 73.5,57C 80.8258,57.4997 88.1591,57.6663 95.5,57.5C 95.666,62.8437 95.4994,68.1771 95,73.5C 94.3109,74.3567 93.4776,75.0233 92.5,75.5C 88.7874,65.812 82.1207,62.9787 72.5,67C 69.4044,69.0287 67.7377,71.862 67.5,75.5C 65.5,75.5 63.5,75.5 61.5,75.5C 61.3334,62.1625 61.5001,48.8292 62,35.5C 62.7172,34.9558 63.2172,34.2891 63.5,33.5 Z M 75.5,33.5 C 77.6547,33.372 79.6547,33.872 81.5,35C 86.7968,40.1284 91.1301,45.9617 94.5,52.5C 88.8625,53.6632 83.1959,53.8299 77.5,53C 77,52.5 76.5,52 76,51.5C 75.5005,45.5092 75.3338,39.5092 75.5,33.5 Z M 22.5,70.5 C 31.8504,70.3654 34.517,74.532 30.5,83C 21.9562,86.3224 18.1229,83.4891 19,74.5C 19.6897,72.6498 20.8564,71.3164 22.5,70.5 Z M 76.5,70.5 C 85.8504,70.3654 88.517,74.532 84.5,83C 75.9562,86.3224 72.1229,83.4891 73,74.5C 73.6897,72.6498 74.8564,71.3164 76.5,70.5 Z"/></g>
<g><path style="opacity:0.765" fill="#ffffff" d="M 22.5,23.5 C 42.6499,21.4828 51.4833,30.4828 49,50.5C 43.6574,61.7523 34.8241,65.9189 22.5,63C 11.2477,57.6574 7.08107,48.8241 10,36.5C 12.3531,30.3154 16.5198,25.982 22.5,23.5 Z M 24.5,28.5 C 21.6141,29.8792 19.1141,31.8792 17,34.5C 12.8227,42.5821 13.9893,49.7488 20.5,56C 28.5821,60.1773 35.7488,59.0107 42,52.5C 47.5982,36.2567 41.7649,28.2567 24.5,28.5 Z"/></g>
<g><path style="opacity:0.854" fill="#000000" d="M 27.5,31.5 C 28.8333,31.5 30.1667,31.5 31.5,31.5C 31.6658,36.1785 31.4992,40.8452 31,45.5C 28.3053,47.6944 25.472,49.6944 22.5,51.5C 21.6184,50.2402 20.6184,49.0736 19.5,48C 21.8333,46.1667 24.1667,44.3333 26.5,42.5C 27.4892,38.8927 27.8226,35.226 27.5,31.5 Z"/></g>
</svg>
