<?xml version="1.0" encoding="UTF-8"?>
<!DOCTYPE svg PUBLIC "-//W3C//DTD SVG 1.1//EN" "http://www.w3.org/Graphics/SVG/1.1/DTD/svg11.dtd">
<svg xmlns="http://www.w3.org/2000/svg" version="1.1" width="100px" height="100px" style="shape-rendering:geometricPrecision; text-rendering:geometricPrecision; image-rendering:optimizeQuality; fill-rule:evenodd; clip-rule:evenodd" xmlns:xlink="http://www.w3.org/1999/xlink">
<g><path style="opacity:0.944" fill="#ffffff" d="M 99.5,43.5 C 99.5,59.5 99.5,75.5 99.5,91.5C 66.1667,91.5 32.8333,91.5 -0.5,91.5C -0.5,75.5 -0.5,59.5 -0.5,43.5C 1.14387,43.7135 2.64387,43.3802 4,42.5C 9.70554,30.9221 15.5389,19.4221 21.5,8C 40.1667,7.33333 58.8333,7.33333 77.5,8C 83.4611,19.4221 89.2945,30.9221 95,42.5C 96.3561,43.3802 97.8561,43.7135 99.5,43.5 Z M 25.5,11.5 C 41.5,11.5 57.5,11.5 73.5,11.5C 73.5,18.1667 73.5,24.8333 73.5,31.5C 57.5,31.5 41.5,31.5 25.5,31.5C 25.5,24.8333 25.5,18.1667 25.5,11.5 Z M 20.5,20.5 C 22.5337,28.4455 21.2004,35.9455 16.5,43C 14.1667,43.6667 11.8333,43.6667 9.5,43C 13.5781,35.6776 17.2447,28.1776 20.5,20.5 Z M 77.5,20.5 C 81.5985,27.859 85.5985,35.359 89.5,43C 86.9009,43.769 84.4009,43.6023 82,42.5C 78.0961,35.6732 76.5961,28.3399 77.5,20.5 Z M 25.5,35.5 C 41.5035,35.3334 57.5035,35.5001 73.5,36C 74.3995,38.1917 75.3995,40.3584 76.5,42.5C 58.5,43.8333 40.5,43.8333 22.5,42.5C 23.7019,40.2195 24.7019,37.8862 25.5,35.5 Z M 3.5,47.5 C 34.1667,47.5 64.8333,47.5 95.5,47.5C 95.5,60.8333 95.5,74.1667 95.5,87.5C 64.8333,87.5 34.1667,87.5 3.5,87.5C 3.5,74.1667 3.5,60.8333 3.5,47.5 Z"/></g>
<g><path style="opacity:0.891" fill="#ffffff" d="M 28.5,63.5 C 34.9049,62.4062 37.2382,65.0729 35.5,71.5C 44.8333,71.5 54.1667,71.5 63.5,71.5C 61.749,64.8929 64.0823,62.3929 70.5,64C 72.2679,68.3687 71.2679,72.0354 67.5,75C 55.5,75.6667 43.5,75.6667 31.5,75C 27.6745,71.8641 26.6745,68.0308 28.5,63.5 Z"/></g>
</svg>
