<?xml version="1.0" encoding="UTF-8"?>
<!DOCTYPE svg PUBLIC "-//W3C//DTD SVG 1.1//EN" "http://www.w3.org/Graphics/SVG/1.1/DTD/svg11.dtd">
<svg xmlns="http://www.w3.org/2000/svg" version="1.1" width="100px" height="100px" style="shape-rendering:geometricPrecision; text-rendering:geometricPrecision; image-rendering:optimizeQuality; fill-rule:evenodd; clip-rule:evenodd" xmlns:xlink="http://www.w3.org/1999/xlink">
<g><path style="opacity:0.973" fill="#ffffff" d="M 13.5,3.5 C 29.5035,3.33341 45.5035,3.50007 61.5,4C 69.3333,11.8333 77.1667,19.6667 85,27.5C 85.4998,36.8274 85.6665,46.1607 85.5,55.5C 84.1667,55.5 82.8333,55.5 81.5,55.5C 81.5,47.5 81.5,39.5 81.5,31.5C 73.5,31.5 65.5,31.5 57.5,31.5C 57.5,23.5 57.5,15.5 57.5,7.5C 44.1667,7.5 30.8333,7.5 17.5,7.5C 17.5,35.5 17.5,63.5 17.5,91.5C 30.5,91.5 43.5,91.5 56.5,91.5C 56.5,92.8333 56.5,94.1667 56.5,95.5C 42.1667,95.5 27.8333,95.5 13.5,95.5C 13.5,64.8333 13.5,34.1667 13.5,3.5 Z M 61.5,11.5 C 66.9647,16.4636 72.298,21.6303 77.5,27C 72.1771,27.4994 66.8437,27.666 61.5,27.5C 61.5,22.1667 61.5,16.8333 61.5,11.5 Z"/></g>
<g><path style="opacity:0.813" fill="#ffffff" d="M 67.5,59.5 C 63.2787,62.8951 60.4453,67.2284 59,72.5C 54.3619,74.7523 51.6952,73.4189 51,68.5C 47.3679,63.8663 43.3679,59.533 39,55.5C 34.9412,58.5405 32.1078,62.3738 30.5,67C 24.3333,68.8333 22.1667,66.6667 24,60.5C 30,58.5 34,54.5 36,48.5C 40.6381,46.2477 43.3048,47.5811 44,52.5C 47.3143,56.9813 51.1476,60.9813 55.5,64.5C 59.1573,60.6735 62.6573,56.6735 66,52.5C 66.912,50.3415 67.7454,48.1748 68.5,46C 74.6667,44.1667 76.8333,46.3333 75,52.5C 71.3705,53.6297 68.8705,55.963 67.5,59.5 Z"/></g>
<g><path style="opacity:0.925" fill="#ffffff" d="M 67.5,59.5 C 78.1667,59.5 88.8333,59.5 99.5,59.5C 99.5,71.1667 99.5,82.8333 99.5,94.5C 97.8333,96.1667 96.1667,97.8333 94.5,99.5C 84.1667,99.5 73.8333,99.5 63.5,99.5C 59.7593,96.444 58.5927,92.444 60,87.5C 61.5388,84.4792 64.0388,83.1459 67.5,83.5C 67.5,75.5 67.5,67.5 67.5,59.5 Z M 71.5,63.5 C 79.5,63.5 87.5,63.5 95.5,63.5C 95.6664,72.1731 95.4998,80.8397 95,89.5C 94.0038,94.229 91.3372,95.5623 87,93.5C 85.8353,90.1861 87.0019,88.1861 90.5,87.5C 91.4287,86.3112 91.762,84.9778 91.5,83.5C 84.8333,83.5 78.1667,83.5 71.5,83.5C 71.5,76.8333 71.5,70.1667 71.5,63.5 Z M 67.5,87.5 C 72.1667,87.5 76.8333,87.5 81.5,87.5C 81.5,90.1667 81.5,92.8333 81.5,95.5C 76.0414,95.8967 70.7081,95.3967 65.5,94C 63.9329,91.0944 64.5995,88.9277 67.5,87.5 Z"/></g>
</svg>
