<?xml version="1.0" encoding="UTF-8"?>
<!DOCTYPE svg PUBLIC "-//W3C//DTD SVG 1.1//EN" "http://www.w3.org/Graphics/SVG/1.1/DTD/svg11.dtd">
<svg xmlns="http://www.w3.org/2000/svg" version="1.1" width="80px" height="80px" style="shape-rendering:geometricPrecision; text-rendering:geometricPrecision; image-rendering:optimizeQuality; fill-rule:evenodd; clip-rule:evenodd" xmlns:xlink="http://www.w3.org/1999/xlink">
<g><path style="opacity:0.762" fill="#ffffff" d="M 14.5,8.5 C 30.8685,8.79814 47.2019,8.79814 63.5,8.5C 64.1667,23.1667 64.8333,37.8333 65.5,52.5C 71.0601,55.1382 72.8934,59.4715 71,65.5C 70.5348,66.9308 69.7014,68.0975 68.5,69C 59.9305,70.1391 51.2638,70.6391 42.5,70.5C 34.5,70.3333 26.5,70.1667 18.5,70C 17.5838,69.6258 16.7504,69.1258 16,68.5C 14.5241,48.5923 14.0241,28.5923 14.5,8.5 Z M 18.5,12.5 C 32.872,12.5345 47.2053,12.8678 61.5,13.5C 62.4992,27.4841 62.8326,41.4841 62.5,55.5C 67.7759,56.293 69.6092,59.293 68,64.5C 67.1667,65.3333 66.3333,66.1667 65.5,67C 52.9039,68.6074 40.2372,68.9408 27.5,68C 29.0454,66.1781 29.712,64.0114 29.5,61.5C 29.5509,58.3277 28.8842,55.3277 27.5,52.5C 24.2758,52.3155 20.9425,52.6488 17.5,53.5C 17.1667,46.8333 16.8333,40.1667 16.5,33.5C 16.5372,26.2635 17.2038,19.2635 18.5,12.5 Z M 19.5,55.5 C 22.0444,55.1043 24.2111,55.771 26,57.5C 27.0037,60.9926 26.5037,64.1592 24.5,67C 21.975,67.8959 19.8083,67.3959 18,65.5C 17.037,61.8513 17.537,58.518 19.5,55.5 Z"/></g>
<g><path style="opacity:1" fill="#ffffff" d="M 22.5,20.5 C 29.8635,20.1694 37.1968,20.5027 44.5,21.5C 40.8333,21.8333 37.1667,22.1667 33.5,22.5C 29.4348,22.4888 25.7681,21.8222 22.5,20.5 Z"/></g>
<g><path style="opacity:1" fill="#ffffff" d="M 50.5,20.5 C 52.604,20.2011 54.604,20.5344 56.5,21.5C 55.5,21.8333 54.5,22.1667 53.5,22.5C 51.9704,22.3601 50.9704,21.6935 50.5,20.5 Z"/></g>
<g><path style="opacity:1" fill="#ffffff" d="M 22.5,26.5 C 28.5368,26.1707 34.5368,26.5041 40.5,27.5C 37.5,27.8333 34.5,28.1667 31.5,28.5C 28.0866,28.483 25.0866,27.8164 22.5,26.5 Z"/></g>
<g><path style="opacity:1" fill="#ffffff" d="M 50.5,26.5 C 52.604,26.2011 54.604,26.5344 56.5,27.5C 55.5,27.8333 54.5,28.1667 53.5,28.5C 51.9704,28.3601 50.9704,27.6935 50.5,26.5 Z"/></g>
<g><path style="opacity:1" fill="#ffffff" d="M 22.5,32.5 C 29.8635,32.1694 37.1968,32.5027 44.5,33.5C 40.8333,33.8333 37.1667,34.1667 33.5,34.5C 29.4348,34.4888 25.7681,33.8222 22.5,32.5 Z"/></g>
<g><path style="opacity:1" fill="#ffffff" d="M 50.5,32.5 C 52.604,32.2011 54.604,32.5344 56.5,33.5C 55.5,33.8333 54.5,34.1667 53.5,34.5C 51.9704,34.3601 50.9704,33.6935 50.5,32.5 Z"/></g>
<g><path style="opacity:1" fill="#ffffff" d="M 22.5,38.5 C 28.5368,38.1707 34.5368,38.5041 40.5,39.5C 37.5,39.8333 34.5,40.1667 31.5,40.5C 28.0866,40.483 25.0866,39.8164 22.5,38.5 Z"/></g>
<g><path style="opacity:1" fill="#ffffff" d="M 50.5,38.5 C 52.604,38.2011 54.604,38.5344 56.5,39.5C 55.5,39.8333 54.5,40.1667 53.5,40.5C 51.9704,40.3601 50.9704,39.6935 50.5,38.5 Z"/></g>
<g><path style="opacity:1" fill="#ffffff" d="M 22.5,44.5 C 29.8635,44.1694 37.1968,44.5027 44.5,45.5C 40.8333,45.8333 37.1667,46.1667 33.5,46.5C 29.4348,46.4888 25.7681,45.8222 22.5,44.5 Z"/></g>
<g><path style="opacity:1" fill="#ffffff" d="M 50.5,44.5 C 52.604,44.2011 54.604,44.5344 56.5,45.5C 55.5,45.8333 54.5,46.1667 53.5,46.5C 51.9704,46.3601 50.9704,45.6935 50.5,44.5 Z"/></g>
<g><path style="opacity:0.766" fill="#ffffff" d="M 30.5,52.5 C 32.337,52.6395 32.6704,53.3061 31.5,54.5C 30.7025,54.0431 30.3691,53.3764 30.5,52.5 Z"/></g>
<g><path style="opacity:0.766" fill="#ffffff" d="M 34.5,52.5 C 36.337,52.6395 36.6704,53.3061 35.5,54.5C 34.7025,54.0431 34.3691,53.3764 34.5,52.5 Z"/></g>
<g><path style="opacity:0.766" fill="#ffffff" d="M 38.5,52.5 C 40.337,52.6395 40.6704,53.3061 39.5,54.5C 38.7025,54.0431 38.3691,53.3764 38.5,52.5 Z"/></g>
<g><path style="opacity:0.766" fill="#ffffff" d="M 42.5,52.5 C 44.337,52.6395 44.6704,53.3061 43.5,54.5C 42.7025,54.0431 42.3691,53.3764 42.5,52.5 Z"/></g>
<g><path style="opacity:0.766" fill="#ffffff" d="M 46.5,52.5 C 48.337,52.6395 48.6704,53.3061 47.5,54.5C 46.7025,54.0431 46.3691,53.3764 46.5,52.5 Z"/></g>
<g><path style="opacity:0.766" fill="#ffffff" d="M 50.5,52.5 C 52.337,52.6395 52.6704,53.3061 51.5,54.5C 50.7025,54.0431 50.3691,53.3764 50.5,52.5 Z"/></g>
<g><path style="opacity:0.766" fill="#ffffff" d="M 54.5,52.5 C 56.337,52.6395 56.6704,53.3061 55.5,54.5C 54.7025,54.0431 54.3691,53.3764 54.5,52.5 Z"/></g>
<g><path style="opacity:0.766" fill="#ffffff" d="M 58.5,52.5 C 60.337,52.6395 60.6704,53.3061 59.5,54.5C 58.7025,54.0431 58.3691,53.3764 58.5,52.5 Z"/></g>
<g><path style="opacity:0.766" fill="#ffffff" d="M 20.5,59.5 C 21.5,59.5 22.5,59.5 23.5,59.5C 23.5,60.8333 23.5,62.1667 23.5,63.5C 22.5,63.5 21.5,63.5 20.5,63.5C 20.5,62.1667 20.5,60.8333 20.5,59.5 Z"/></g>
</svg>
