<?xml version="1.0" encoding="UTF-8"?>
<!DOCTYPE svg PUBLIC "-//W3C//DTD SVG 1.1//EN" "http://www.w3.org/Graphics/SVG/1.1/DTD/svg11.dtd">
<svg xmlns="http://www.w3.org/2000/svg" version="1.1" width="512px" height="512px" style="shape-rendering:geometricPrecision; text-rendering:geometricPrecision; image-rendering:optimizeQuality; fill-rule:evenodd; clip-rule:evenodd" xmlns:xlink="http://www.w3.org/1999/xlink">
<g><path style="opacity:0.945" fill="#ffffffff" d="M 353.5,9.5 C 410.101,6.21573 453.601,28.2157 484,75.5C 505.025,115.558 507.025,156.558 490,198.5C 464.984,248.277 424.484,274.277 368.5,276.5C 318.263,275.145 279.763,253.478 253,211.5C 226.382,160.714 228.715,111.38 260,63.5C 283.91,32.9609 315.077,14.9609 353.5,9.5 Z M 360.5,30.5 C 413.777,30.8687 451.277,55.202 473,103.5C 489.494,157.681 475.327,201.847 430.5,236C 387.018,262.162 344.018,261.162 301.5,233C 260.209,198.788 247.376,155.954 263,104.5C 281.328,60.9885 313.828,36.3218 360.5,30.5 Z M 358.5,71.5 C 364.833,71.5 371.167,71.5 377.5,71.5C 377.335,75.1817 377.501,78.8484 378,82.5C 393.515,88.5135 402.015,99.8469 403.5,116.5C 396.833,116.5 390.167,116.5 383.5,116.5C 381.752,105.109 375.085,100.276 363.5,102C 354.583,105.999 351.083,112.832 353,122.5C 354.061,125.562 355.894,128.062 358.5,130C 366.326,132.577 374.326,134.577 382.5,136C 401.582,146.911 407.416,162.745 400,183.5C 395.388,192.723 388.222,199.056 378.5,202.5C 377.509,206.445 377.176,210.445 377.5,214.5C 371.167,214.5 364.833,214.5 358.5,214.5C 358.5,210.5 358.5,206.5 358.5,202.5C 342.154,197.179 333.487,185.845 332.5,168.5C 339.167,168.5 345.833,168.5 352.5,168.5C 355.04,182.605 363.04,187.105 376.5,182C 383.587,176.268 385.42,169.101 382,160.5C 380.5,158.333 378.667,156.5 376.5,155C 370.319,153.079 363.986,151.746 357.5,151C 340.415,144.332 332.249,131.832 333,113.5C 335.692,98.3897 344.192,88.3897 358.5,83.5C 358.5,79.5 358.5,75.5 358.5,71.5 Z"/></g>
<g><path style="opacity:0.943" fill="#ffffffff" d="M 162.5,16.5 C 183.37,24.2659 204.036,32.5993 224.5,41.5C 216.33,61.8273 207.663,81.8273 198.5,101.5C 191.829,98.8312 185.496,95.6645 179.5,92C 183.028,82.4445 186.695,72.9445 190.5,63.5C 190,63.1667 189.5,62.8333 189,62.5C 113.197,88.9692 66.1973,141.303 48,219.5C 42.1582,252.53 43.6582,285.197 52.5,317.5C 45.4542,320.626 38.1209,322.959 30.5,324.5C 8.78462,238.522 28.1179,163.355 88.5,99C 112.894,75.1239 141.228,57.2906 173.5,45.5C 167.167,42.3333 160.833,39.1667 154.5,36C 157.462,29.6138 160.128,23.1138 162.5,16.5 Z"/></g>
<g><path style="opacity:0.968" fill="#00000000" d="M 356.5,52.5 C 400.812,49.5621 432.646,67.8954 452,107.5C 466.177,148.288 457.677,183.455 426.5,213C 393.221,237.157 358.221,239.823 321.5,221C 284.469,195.937 270.969,161.437 281,117.5C 293.124,80.5341 318.291,58.8674 356.5,52.5 Z M 358.5,71.5 C 358.5,75.5 358.5,79.5 358.5,83.5C 344.192,88.3897 335.692,98.3897 333,113.5C 332.249,131.832 340.415,144.332 357.5,151C 363.986,151.746 370.319,153.079 376.5,155C 378.667,156.5 380.5,158.333 382,160.5C 385.42,169.101 383.587,176.268 376.5,182C 363.04,187.105 355.04,182.605 352.5,168.5C 345.833,168.5 339.167,168.5 332.5,168.5C 333.487,185.845 342.154,197.179 358.5,202.5C 358.5,206.5 358.5,210.5 358.5,214.5C 364.833,214.5 371.167,214.5 377.5,214.5C 377.176,210.445 377.509,206.445 378.5,202.5C 388.222,199.056 395.388,192.723 400,183.5C 407.416,162.745 401.582,146.911 382.5,136C 374.326,134.577 366.326,132.577 358.5,130C 355.894,128.062 354.061,125.562 353,122.5C 351.083,112.832 354.583,105.999 363.5,102C 375.085,100.276 381.752,105.109 383.5,116.5C 390.167,116.5 396.833,116.5 403.5,116.5C 402.015,99.8469 393.515,88.5135 378,82.5C 377.501,78.8484 377.335,75.1817 377.5,71.5C 371.167,71.5 364.833,71.5 358.5,71.5 Z"/></g>
<g><path style="opacity:0.981" fill="#ffffffff" d="M 138.5,199.5 C 166.195,198.262 187.362,209.262 202,232.5C 215.252,260.953 211.418,286.786 190.5,310C 169.776,327.81 146.443,332.143 120.5,323C 88.652,307.136 76.152,281.636 83,246.5C 89.8333,223.667 104.667,208.833 127.5,202C 131.312,201.205 134.979,200.371 138.5,199.5 Z"/></g>
<g><path style="opacity:0.943" fill="#ffffffff" d="M 452.5,299.5 C 460.086,300.05 467.419,301.55 474.5,304C 461.366,367.425 428.033,417.092 374.5,453C 382.807,455.028 391.14,456.861 399.5,458.5C 398.121,466.016 396.121,473.35 393.5,480.5C 372.29,475.572 351.124,470.572 330,465.5C 334.55,444.254 339.05,422.921 343.5,401.5C 350.222,402.68 356.889,404.18 363.5,406C 364.428,406.388 365.095,407.055 365.5,408C 363.093,416.782 361.26,425.615 360,434.5C 409.161,402.214 439.994,357.214 452.5,299.5 Z"/></g>
<g><path style="opacity:0.99" fill="#ffffffff" d="M 130.5,362.5 C 165.818,359.995 199.151,366.828 230.5,383C 269.258,408.701 285.758,444.867 280,491.5C 279.744,494.557 279.244,497.557 278.5,500.5C 189.502,501.5 100.502,501.833 11.5,501.5C 1.49382,429.704 31.4938,384.871 101.5,367C 111.262,365.155 120.928,363.655 130.5,362.5 Z"/></g>
</svg>
