<?xml version="1.0" encoding="UTF-8"?>
<!DOCTYPE svg PUBLIC "-//W3C//DTD SVG 1.1//EN" "http://www.w3.org/Graphics/SVG/1.1/DTD/svg11.dtd">
<svg xmlns="http://www.w3.org/2000/svg" version="1.1" width="100px" height="100px" style="shape-rendering:geometricPrecision; text-rendering:geometricPrecision; image-rendering:optimizeQuality; fill-rule:evenodd; clip-rule:evenodd" xmlns:xlink="http://www.w3.org/1999/xlink">
<g><path style="opacity:0.832" fill="#ffffff" d="M 72.5,-0.5 C 78.5,-0.5 84.5,-0.5 90.5,-0.5C 93.8732,0.356353 96.8732,2.02302 99.5,4.5C 99.5,25.1667 99.5,45.8333 99.5,66.5C 96.8544,64.5211 94.5211,62.1878 92.5,59.5C 95.144,58.259 95.9774,56.259 95,53.5C 86,56.1667 77,56.1667 68,53.5C 67.3486,55.235 67.5153,56.9017 68.5,58.5C 63.5559,64.3287 57.2226,66.662 49.5,65.5C 44.8302,65.6615 40.3302,64.9948 36,63.5C 35.2485,67.5953 37.0818,69.7619 41.5,70C 46.8229,70.4994 52.1563,70.666 57.5,70.5C 57.5792,71.9305 57.2458,73.2638 56.5,74.5C 49.5304,75.97 42.6971,75.6367 36,73.5C 35.2485,77.5953 37.0818,79.7619 41.5,80C 46.4889,80.4993 51.4889,80.6659 56.5,80.5C 56.5,82.1667 56.5,83.8333 56.5,85.5C 51.1563,85.666 45.8229,85.4994 40.5,85C 38.8988,84.7266 37.3988,84.2266 36,83.5C 35.2485,87.5953 37.0818,89.7619 41.5,90C 47.5275,90.1697 53.5275,90.6697 59.5,91.5C 61.0224,93.1563 60.689,94.323 58.5,95C 52.5,95.6667 46.5,95.6667 40.5,95C 37.9999,94.6253 35.6666,93.7919 33.5,92.5C 31.3334,93.7919 29.0001,94.6253 26.5,95C 20.5,95.6667 14.5,95.6667 8.5,95C 4.92484,94.5458 1.92484,93.0458 -0.5,90.5C -0.5,71.8333 -0.5,53.1667 -0.5,34.5C 1.92484,31.9542 4.92484,30.4542 8.5,30C 15.8992,29.1519 23.2325,29.4853 30.5,31C 32.286,31.7845 33.786,32.9512 35,34.5C 35.3333,40.1667 35.6667,45.8333 36,51.5C 45,48.8333 54,48.8333 63,51.5C 63.3333,35.8333 63.6667,20.1667 64,4.5C 66.3978,1.89156 69.2312,0.224897 72.5,-0.5 Z M 73.5,4.5 C 78.8437,4.33398 84.1771,4.50065 89.5,5C 96.1667,6.66667 96.1667,8.33333 89.5,10C 84.1667,10.6667 78.8333,10.6667 73.5,10C 67.069,8.25232 67.069,6.41899 73.5,4.5 Z M 67.5,13.5 C 76.6669,16.1482 85.8336,16.1482 95,13.5C 95.7515,17.5953 93.9182,19.7619 89.5,20C 84.1667,20.6667 78.8333,20.6667 73.5,20C 69.2604,19.7444 67.2604,17.5777 67.5,13.5 Z M 67.5,23.5 C 76.6669,26.1482 85.8336,26.1482 95,23.5C 95.7515,27.5953 93.9182,29.7619 89.5,30C 84.1667,30.6667 78.8333,30.6667 73.5,30C 69.2604,29.7444 67.2604,27.5777 67.5,23.5 Z M 67.5,33.5 C 76.6669,36.1482 85.8336,36.1482 95,33.5C 95.7515,37.5953 93.9182,39.7619 89.5,40C 84.1667,40.6667 78.8333,40.6667 73.5,40C 69.2604,39.7444 67.2604,37.5777 67.5,33.5 Z M 9.5,34.5 C 14.8437,34.334 20.1771,34.5006 25.5,35C 32.1667,36.6667 32.1667,38.3333 25.5,40C 20.1667,40.6667 14.8333,40.6667 9.5,40C 3.06897,38.2523 3.06897,36.419 9.5,34.5 Z M 3.5,43.5 C 12.6669,46.1482 21.8336,46.1482 31,43.5C 31.7515,47.5953 29.9182,49.7619 25.5,50C 20.1667,50.6667 14.8333,50.6667 9.5,50C 5.26042,49.7444 3.26042,47.5777 3.5,43.5 Z M 67.5,43.5 C 76.6669,46.1482 85.8336,46.1482 95,43.5C 95.7515,47.5953 93.9182,49.7619 89.5,50C 84.1667,50.6667 78.8333,50.6667 73.5,50C 69.2604,49.7444 67.2604,47.5777 67.5,43.5 Z M 3.5,53.5 C 12.6669,56.1482 21.8336,56.1482 31,53.5C 31.7515,57.5953 29.9182,59.7619 25.5,60C 20.1667,60.6667 14.8333,60.6667 9.5,60C 5.26042,59.7444 3.26042,57.5777 3.5,53.5 Z M 41.5,54.5 C 46.8437,54.334 52.1771,54.5006 57.5,55C 64.1667,56.6667 64.1667,58.3333 57.5,60C 52.1667,60.6667 46.8333,60.6667 41.5,60C 35.069,58.2523 35.069,56.419 41.5,54.5 Z M 3.5,63.5 C 12.6669,66.1482 21.8336,66.1482 31,63.5C 31.7515,67.5953 29.9182,69.7619 25.5,70C 20.1667,70.6667 14.8333,70.6667 9.5,70C 5.26042,69.7444 3.26042,67.5777 3.5,63.5 Z M 3.5,73.5 C 12.6669,76.1482 21.8336,76.1482 31,73.5C 31.7515,77.5953 29.9182,79.7619 25.5,80C 20.1667,80.6667 14.8333,80.6667 9.5,80C 5.26042,79.7444 3.26042,77.5777 3.5,73.5 Z M 3.5,83.5 C 12.6669,86.1482 21.8336,86.1482 31,83.5C 31.7515,87.5953 29.9182,89.7619 25.5,90C 20.1667,90.6667 14.8333,90.6667 9.5,90C 5.26042,89.7444 3.26042,87.5777 3.5,83.5 Z"/></g>
<g><path style="opacity:0.766" fill="#ffffff" d="M 99.5,72.5 C 99.5,77.1667 99.5,81.8333 99.5,86.5C 98.0242,88.7686 96.5242,91.1019 95,93.5C 92.2639,95.7519 89.4305,97.7519 86.5,99.5C 81.8333,99.5 77.1667,99.5 72.5,99.5C 61.381,93.9201 57.2143,84.9201 60,72.5C 65.3426,61.2477 74.1759,57.0811 86.5,60C 92.6846,62.3531 97.018,66.5198 99.5,72.5 Z M 74.5,64.5 C 91.7649,64.2567 97.5982,72.2567 92,88.5C 85.7488,95.0107 78.5821,96.1773 70.5,92C 63.9893,85.7488 62.8227,78.5821 67,70.5C 69.1141,67.8792 71.6141,65.8792 74.5,64.5 Z"/></g>
<g><path style="opacity:0.823" fill="#ffffff" d="M 80.5,67.5 C 82.4352,68.1495 84.4352,68.4828 86.5,68.5C 86.5,69.8333 86.5,71.1667 86.5,72.5C 83.0921,71.828 80.4255,72.828 78.5,75.5C 80.396,76.4656 82.396,76.7989 84.5,76.5C 84.5,77.8333 84.5,79.1667 84.5,80.5C 83.1667,80.5 81.8333,80.5 80.5,80.5C 80.7035,82.3904 80.0368,83.8904 78.5,85C 81.4816,85.498 84.4816,85.6646 87.5,85.5C 87.5,86.8333 87.5,88.1667 87.5,89.5C 82.1667,89.5 76.8333,89.5 71.5,89.5C 71.461,86.1903 72.7943,83.5237 75.5,81.5C 74.3112,80.5713 72.9778,80.238 71.5,80.5C 72.3676,77.1574 73.3676,73.824 74.5,70.5C 76.444,69.1993 78.444,68.1993 80.5,67.5 Z"/></g>
</svg>
