<?xml version="1.0" encoding="UTF-8"?>
<!DOCTYPE svg PUBLIC "-//W3C//DTD SVG 1.1//EN" "http://www.w3.org/Graphics/SVG/1.1/DTD/svg11.dtd">
<svg xmlns="http://www.w3.org/2000/svg" version="1.1" width="512px" height="512px" style="shape-rendering:geometricPrecision; text-rendering:geometricPrecision; image-rendering:optimizeQuality; fill-rule:evenodd; clip-rule:evenodd" xmlns:xlink="http://www.w3.org/1999/xlink">
<g><path style="opacity:0.968" fill="#ffffff" d="M 3.5,-0.5 C 121.833,-0.5 240.167,-0.5 358.5,-0.5C 360.144,0.316435 361.31,1.64977 362,3.5C 362.167,98.1684 362.667,192.835 363.5,287.5C 376.004,280.08 388.671,272.914 401.5,266C 403.5,265.333 405.5,265.333 407.5,266C 438.833,284 470.167,302 501.5,320C 505.324,322.01 508.658,324.51 511.5,327.5C 511.5,368.5 511.5,409.5 511.5,450.5C 477.296,471.1 442.963,491.433 408.5,511.5C 405.5,511.5 402.5,511.5 399.5,511.5C 387.48,504.067 375.313,496.733 363,489.5C 362.667,495.5 362.333,501.5 362,507.5C 361.31,509.35 360.144,510.684 358.5,511.5C 240.167,511.5 121.833,511.5 3.5,511.5C 1.83333,510.5 0.5,509.167 -0.5,507.5C -0.5,339.5 -0.5,171.5 -0.5,3.5C 0.5,1.83333 1.83333,0.5 3.5,-0.5 Z M 15.5,15.5 C 125.5,15.5 235.5,15.5 345.5,15.5C 345.833,109.836 345.5,204.169 344.5,298.5C 330.833,306.333 317.167,314.167 303.5,322C 301.04,323.458 298.873,325.291 297,327.5C 296.333,368.167 296.333,408.833 297,449.5C 298.167,452 300,453.833 302.5,455C 316.5,463 330.5,471 344.5,479C 345.473,484.407 345.807,489.907 345.5,495.5C 235.5,495.5 125.5,495.5 15.5,495.5C 15.5,335.5 15.5,175.5 15.5,15.5 Z M 402.5,284.5 C 405.691,285.092 408.691,286.259 411.5,288C 436.331,302.248 460.998,316.748 485.5,331.5C 459.664,346.919 433.664,362.086 407.5,377C 405.956,378.187 404.289,378.52 402.5,378C 375.573,362.732 348.907,347.065 322.5,331C 349.393,315.726 376.06,300.226 402.5,284.5 Z M 313.5,346.5 C 340.721,362.029 367.888,377.695 395,393.5C 395.667,425.167 395.667,456.833 395,488.5C 368,472.833 341,457.167 314,441.5C 313.5,409.835 313.333,378.168 313.5,346.5 Z M 493.5,346.5 C 494.833,361.986 495.499,377.819 495.5,394C 495.167,409.833 494.833,425.667 494.5,441.5C 467.252,457.04 440.085,472.707 413,488.5C 412.167,456.828 412.333,425.161 413.5,393.5C 440.23,377.807 466.896,362.14 493.5,346.5 Z"/></g>
<g><path style="opacity:0.942" fill="#ffffff" d="M 52.5,48.5 C 86.1683,48.3333 119.835,48.5 153.5,49C 154.416,49.3742 155.25,49.8742 156,50.5C 158.109,54.7809 157.942,58.9476 155.5,63C 153.913,63.8624 152.246,64.5291 150.5,65C 122.169,65.5 93.8353,65.6666 65.5,65.5C 65.5,88.1667 65.5,110.833 65.5,133.5C 90.5,133.5 115.5,133.5 140.5,133.5C 140.666,126.492 140.5,119.492 140,112.5C 135.533,115.965 131.367,119.798 127.5,124C 124.033,126.786 120.366,127.12 116.5,125C 109.667,118.167 102.833,111.333 96,104.5C 93.1586,94.3384 96.9919,90.1717 107.5,92C 112.015,96.6819 116.681,101.182 121.5,105.5C 134.982,93.8524 148.315,82.019 161.5,70C 172.497,68.4641 175.997,72.9641 172,83.5C 167.033,87.466 162.366,91.7993 158,96.5C 157.667,113.167 157.333,129.833 157,146.5C 156.626,147.416 156.126,148.25 155.5,149C 138.088,150.154 120.588,150.654 103,150.5C 85.412,150.654 67.912,150.154 50.5,149C 49.8742,148.25 49.3742,147.416 49,146.5C 48.3333,115.167 48.3333,83.8333 49,52.5C 49.6897,50.6498 50.8564,49.3164 52.5,48.5 Z"/></g>
<g><path style="opacity:0.935" fill="#ffffff" d="M 197.5,48.5 C 234.835,48.3333 272.168,48.5 309.5,49C 313.788,52.7712 314.621,57.2712 312,62.5C 310.352,63.717 308.519,64.5503 306.5,65C 271.167,65.6667 235.833,65.6667 200.5,65C 193.129,62.2184 191.296,57.385 195,50.5C 195.995,49.9341 196.828,49.2674 197.5,48.5 Z"/></g>
<g><path style="opacity:0.986" fill="#ffffff" d="M 197.5,91.5 C 234.835,91.3333 272.168,91.5 309.5,92C 312.516,93.5286 313.849,96.0286 313.5,99.5C 313.849,102.971 312.516,105.471 309.5,107C 272.167,107.667 234.833,107.667 197.5,107C 191.05,101.759 191.05,96.5923 197.5,91.5 Z"/></g>
<g><path style="opacity:0.942" fill="#ffffff" d="M 52.5,204.5 C 86.1683,204.333 119.835,204.5 153.5,205C 154.416,205.374 155.25,205.874 156,206.5C 158.109,210.781 157.942,214.948 155.5,219C 153.913,219.862 152.246,220.529 150.5,221C 122.169,221.5 93.8353,221.667 65.5,221.5C 65.5,244.167 65.5,266.833 65.5,289.5C 90.5,289.5 115.5,289.5 140.5,289.5C 140.666,282.492 140.5,275.492 140,268.5C 135.533,271.965 131.367,275.798 127.5,280C 124.033,282.786 120.366,283.12 116.5,281C 109.667,274.167 102.833,267.333 96,260.5C 93.0087,253.149 95.342,248.483 103,246.5C 104.399,247.227 105.899,247.727 107.5,248C 112.015,252.682 116.681,257.182 121.5,261.5C 134.982,249.852 148.315,238.019 161.5,226C 172.497,224.464 175.997,228.964 172,239.5C 167.033,243.466 162.366,247.799 158,252.5C 157.667,269.167 157.333,285.833 157,302.5C 156.626,303.416 156.126,304.25 155.5,305C 138.088,306.154 120.588,306.654 103,306.5C 85.412,306.654 67.912,306.154 50.5,305C 49.8742,304.25 49.3742,303.416 49,302.5C 48.3333,271.167 48.3333,239.833 49,208.5C 49.6897,206.65 50.8564,205.316 52.5,204.5 Z"/></g>
<g><path style="opacity:0.934" fill="#ffffff" d="M 197.5,204.5 C 234.835,204.333 272.168,204.5 309.5,205C 312.516,206.529 313.849,209.029 313.5,212.5C 313.882,217.57 311.548,220.403 306.5,221C 271.167,221.667 235.833,221.667 200.5,221C 193.129,218.218 191.296,213.385 195,206.5C 195.995,205.934 196.828,205.267 197.5,204.5 Z"/></g>
<g><path style="opacity:0.986" fill="#ffffff" d="M 197.5,247.5 C 234.835,247.333 272.168,247.5 309.5,248C 312.516,249.529 313.849,252.029 313.5,255.5C 313.849,258.971 312.516,261.471 309.5,263C 272.167,263.667 234.833,263.667 197.5,263C 191.05,257.759 191.05,252.592 197.5,247.5 Z"/></g>
<g><path style="opacity:0.942" fill="#ffffff" d="M 52.5,360.5 C 86.1683,360.333 119.835,360.5 153.5,361C 154.416,361.374 155.25,361.874 156,362.5C 158.109,366.781 157.942,370.948 155.5,375C 153.913,375.862 152.246,376.529 150.5,377C 122.169,377.5 93.8353,377.667 65.5,377.5C 65.5,400.167 65.5,422.833 65.5,445.5C 90.5,445.5 115.5,445.5 140.5,445.5C 140.666,438.492 140.5,431.492 140,424.5C 135.533,427.965 131.367,431.798 127.5,436C 124.033,438.786 120.366,439.12 116.5,437C 109.667,430.167 102.833,423.333 96,416.5C 93.1586,406.338 96.9919,402.172 107.5,404C 112.015,408.682 116.681,413.182 121.5,417.5C 134.982,405.852 148.315,394.019 161.5,382C 172.073,380.912 175.573,385.412 172,395.5C 167.033,399.466 162.366,403.799 158,408.5C 157.667,425.167 157.333,441.833 157,458.5C 156.626,459.416 156.126,460.25 155.5,461C 138.088,462.154 120.588,462.654 103,462.5C 85.412,462.654 67.912,462.154 50.5,461C 49.8742,460.25 49.3742,459.416 49,458.5C 48.3333,427.167 48.3333,395.833 49,364.5C 49.6897,362.65 50.8564,361.316 52.5,360.5 Z"/></g>
<g><path style="opacity:0.927" fill="#ffffff" d="M 197.5,360.5 C 215.836,360.333 234.17,360.5 252.5,361C 254.333,361.5 255.5,362.667 256,364.5C 258.18,371.658 255.68,375.825 248.5,377C 232.5,377.667 216.5,377.667 200.5,377C 193.129,374.218 191.296,369.385 195,362.5C 195.995,361.934 196.828,361.267 197.5,360.5 Z"/></g>
<g><path style="opacity:0.973" fill="#ffffff" d="M 197.5,403.5 C 215.836,403.333 234.17,403.5 252.5,404C 254.333,404.5 255.5,405.667 256,407.5C 256.667,410.167 256.667,412.833 256,415.5C 255.5,417.333 254.333,418.5 252.5,419C 234.167,419.667 215.833,419.667 197.5,419C 191.05,413.759 191.05,408.592 197.5,403.5 Z"/></g>
</svg>
