<?xml version="1.0" encoding="UTF-8"?>
<!DOCTYPE svg PUBLIC "-//W3C//DTD SVG 1.1//EN" "http://www.w3.org/Graphics/SVG/1.1/DTD/svg11.dtd">
<svg xmlns="http://www.w3.org/2000/svg" version="1.1" width="64px" height="64px" style="shape-rendering:geometricPrecision; text-rendering:geometricPrecision; image-rendering:optimizeQuality; fill-rule:evenodd; clip-rule:evenodd" xmlns:xlink="http://www.w3.org/1999/xlink">
<g><path style="opacity:0.71" fill="#ffffff" d="M -0.5,11.5 C -0.5,9.83333 -0.5,8.16667 -0.5,6.5C 2.76109,3.33597 6.76109,1.6693 11.5,1.5C 19.5808,2.06028 27.0808,4.39362 34,8.5C 34.6123,10.2373 33.9457,11.2373 32,11.5C 23.5999,6.90574 14.7666,5.40574 5.5,7C 4.64332,7.68909 3.97665,8.52242 3.5,9.5C 6.01005,13.3154 8.01005,17.3154 9.5,21.5C 4.5406,19.874 1.20726,16.5407 -0.5,11.5 Z"/></g>
<g><path style="opacity:0.732" fill="#ffffff" d="M 63.5,6.5 C 63.5,14.5 63.5,22.5 63.5,30.5C 54.0628,40.4382 44.3961,50.2716 34.5,60C 31.9699,61.4217 29.3033,61.755 26.5,61C 19.3333,53.8333 12.1667,46.6667 5,39.5C 4.59826,38.1279 4.09826,36.7946 3.5,35.5C 4.09826,34.2054 4.59826,32.8721 5,31.5C 10.8333,25.6667 16.6667,19.8333 22.5,14C 23.7932,13.51 25.1266,13.3433 26.5,13.5C 26.6495,14.552 26.4828,15.552 26,16.5C 19.5845,22.4106 13.7512,28.744 8.5,35.5C 14.586,43.0904 21.2527,50.2571 28.5,57C 29.9078,57.3152 31.2411,56.9819 32.5,56C 41.6973,47.137 50.5306,37.9703 59,28.5C 59.8123,21.2529 59.6456,14.0862 58.5,7C 50.9458,5.56794 43.2792,5.06794 35.5,5.5C 35.5,4.5 35.5,3.5 35.5,2.5C 43.84,2.3336 52.1733,2.50027 60.5,3C 61.6364,4.14508 62.6364,5.31174 63.5,6.5 Z M 28.5,24.5 C 30.4646,24.9483 30.7979,25.9483 29.5,27.5C 28.6143,26.675 28.281,25.675 28.5,24.5 Z M 28.5,44.5 C 30.4646,44.9483 30.7979,45.9483 29.5,47.5C 28.6143,46.675 28.281,45.675 28.5,44.5 Z"/></g>
<g><path style="opacity:0.657" fill="#ffffff" d="M 40.5,12.5 C 42.6125,13.4396 44.6125,14.6063 46.5,16C 48.0368,17.1096 48.7035,18.6096 48.5,20.5C 44.5603,20.1971 41.5603,18.3638 39.5,15C 39.7432,14.0979 40.0766,13.2646 40.5,12.5 Z"/></g>
<g><path style="opacity:0.717" fill="#ffffff" d="M 26.5,20.5 C 34.6178,20.3821 36.6178,23.8821 32.5,31C 25.4949,32.3236 22.9949,29.4902 25,22.5C 25.7172,21.9558 26.2172,21.2891 26.5,20.5 Z M 28.5,24.5 C 28.281,25.675 28.6143,26.675 29.5,27.5C 30.7979,25.9483 30.4646,24.9483 28.5,24.5 Z"/></g>
<g><path style="opacity:0.944" fill="#ffffff" d="M 14.5,34.5 C 24.5,34.5 34.5,34.5 44.5,34.5C 44.5,35.5 44.5,36.5 44.5,37.5C 34.5,37.5 24.5,37.5 14.5,37.5C 14.5,36.5 14.5,35.5 14.5,34.5 Z"/></g>
<g><path style="opacity:0.717" fill="#ffffff" d="M 26.5,40.5 C 34.6178,40.3821 36.6178,43.8821 32.5,51C 25.4949,52.3236 22.9949,49.4902 25,42.5C 25.7172,41.9558 26.2172,41.2891 26.5,40.5 Z M 28.5,44.5 C 28.281,45.675 28.6143,46.675 29.5,47.5C 30.7979,45.9483 30.4646,44.9483 28.5,44.5 Z"/></g>
</svg>
