<svg xmlns="http://www.w3.org/2000/svg" shape-rendering="geometricPrecision" text-rendering="geometricPrecision" image-rendering="optimizeQuality" fill-rule="evenodd" clip-rule="evenodd" viewBox="0 0 512 468.652" width="1em" height="1em"><path fill="#596882" d="M394.716 234.087c32.383 0 61.708 13.129 82.931 34.352C498.871 289.663 512 318.985 512 351.368s-13.129 61.707-34.353 82.931c-21.223 21.223-50.548 34.353-82.931 34.353-32.382 0-61.705-13.13-82.929-34.353a117.791 117.791 0 01-15.677-19.412l.049.077H5.382c-2.968 0-5.382-2.414-5.382-5.373 0-125.2 94.538-80.234 139.209-120.278 4.42-6.862 7.109-16.32 9.537-24.86l1.099-3.842c.144-.501.329-.979.551-1.43-11.594-10.286-20.935-20.628-23.893-40.753a22.051 22.051 0 01-7.058-2.55c-5.42-3.079-9.119-8.116-11.543-13.737-2.631-6.097-3.816-13.176-4.087-18.5-.091-1.791-.091-5.361 0-8.78l.002-.045c.082-3.015.241-5.982.483-7.729.132-.965.384-1.883.738-2.743 2.493-6.859 5.679-10.871 9.541-12.902-1.506-26.651 3.217-69.357-24.33-77.688C144.335 6.918 206.677-29.434 253.488 30.022c52.422 2.753 73.546 81.149 40.081 122.508l-.16 2.04c3.715-.017 7.309.785 10.525 2.501 4.298 2.297 7.576 5.971 9.256 11.185 1.455 4.52 1.57 10.088-.22 16.708-.107.399-.235.787-.38 1.165l-6.791 19.232c-1.472 4.183-2.898 7.194-6.368 9.954l.017.021c-2.712 2.158-5.681 3.289-9.569 3.569-2.06 20.504-13.08 30.865-27.139 44.071l-.254.239c2.842 6.176 6.799 14.113 11.677 20.51 5.25 4.623 11.251 8.213 17.745 11.164l-.078.147a117.689 117.689 0 0119.957-26.597c21.224-21.223 50.547-34.352 82.929-34.352zm-.006 123.214l45.875.587c2.277.053 4.005.589 5.288 1.818 1.323 1.267 1.923 3 1.891 5.395 0 6.009-.566 12.51-.359 18.432 0 2.019-.533 3.671-1.632 4.932-1.144 1.313-2.753 2.04-4.838 2.138-22.434 0-44.868-.089-67.301-.117-5.282.011-7.82.011-9.704-1.948-1.75-1.819-1.746-4.104-1.726-8.483l-.003-3.099-.584-62.901c-.03-3.448.546-5.868 2.242-7.618 1.684-1.737 4.122-2.433 7.767-2.418l15.476-.205c7.03-.077 7.911 3.144 7.967 8.035-.084 15.15-.239 30.302-.359 45.452zm-138.678-87.97c-15.293 14.335-30.731 21.207-46.713 21.055-16.283-.156-32.213-7.621-48.289-21.919a480.942 480.942 0 00-3.702-3.261c-4.179 14.646-8.758 32.201-22.018 39.342 46.073 28.089 102.616 29.988 147.413-2.879-11.782-4.878-20.195-18.699-26.691-32.338zM115.459 168.629c3.7-10.589 12.305-7.183 24.563-2.71-4.895-22.203.886-39.549 18.266-51.57 37.086-25.659 48.203-3.699 88.401-36.067 23.093 11.631 43.755 31.293 33.226 92.723 11.144-8.445 27.216-7.659 22.16 11.048l-6.906 19.559c-1.649 4.68-2.755 6.374-8.67 6.061-2.611-.139-5.242-1.146-7.863-2.879 2.42 28.859-11.592 38.279-29.124 55.198-27.002 26.058-52.955 24.982-80.982.049-16.416-14.601-31.002-23.475-31.728-53.497-4.26 1.304-8.287 1.541-11.799-.459-7.005-3.982-9.559-15.587-9.939-23.018-.153-2.984-.026-11.394.395-14.438zm279.257 83.091c55.037 0 99.65 44.614 99.65 99.648 0 55.036-44.613 99.65-99.65 99.65-55.034 0-99.647-44.614-99.647-99.65 0-55.034 44.613-99.648 99.647-99.648z"/></svg>
