<?xml version="1.0" encoding="UTF-8"?>
<!DOCTYPE svg PUBLIC "-//W3C//DTD SVG 1.1//EN" "http://www.w3.org/Graphics/SVG/1.1/DTD/svg11.dtd">
<svg xmlns="http://www.w3.org/2000/svg" version="1.1" viewBox="0 0 512 512" width="1em" height="1em" style="shape-rendering:geometricPrecision; text-rendering:geometricPrecision; image-rendering:optimizeQuality; fill-rule:evenodd; clip-rule:evenodd" xmlns:xlink="http://www.w3.org/1999/xlink">
<g><path style="opacity:0.966" fill="#596882" d="M 350.5,-0.5 C 355.167,-0.5 359.833,-0.5 364.5,-0.5C 377.074,10.571 389.241,22.2377 401,34.5C 412.759,22.2377 424.926,10.571 437.5,-0.5C 441.5,-0.5 445.5,-0.5 449.5,-0.5C 458.269,4.97351 460.769,12.6402 457,22.5C 446.197,34.3042 435.03,45.8042 423.5,57C 435.731,68.5623 447.231,80.729 458,93.5C 458.749,100.6 458.249,107.6 456.5,114.5C 474.854,139.235 493.188,163.901 511.5,188.5C 511.5,281.5 511.5,374.5 511.5,467.5C 505.167,490.5 490.5,505.167 467.5,511.5C 386.833,511.5 306.167,511.5 225.5,511.5C 195.701,502.334 180.701,482.001 180.5,450.5C 177.36,448.527 174.36,446.36 171.5,444C 119.333,391.833 67.1667,339.667 15,287.5C 7.18046,279.191 2.01379,269.525 -0.5,258.5C -0.5,251.167 -0.5,243.833 -0.5,236.5C 2.03348,227.433 6.20015,219.1 12,211.5C 74.8333,148.667 137.667,85.8333 200.5,23C 203.569,21.1539 206.902,20.1539 210.5,20C 257.356,13.4735 304.022,6.64018 350.5,-0.5 Z M 346.5,31.5 C 348.857,31.3367 351.19,31.5034 353.5,32C 361.833,40.3333 370.167,48.6667 378.5,57C 371.986,63.6814 365.319,70.1814 358.5,76.5C 353.938,71.7682 348.938,67.6016 343.5,64C 329.651,60.853 322.484,66.353 322,80.5C 322.36,82.6079 323.027,84.6079 324,86.5C 339.833,102.333 355.667,118.167 371.5,134C 384.583,138.624 392.583,134.124 395.5,120.5C 395.031,116.926 393.864,113.592 392,110.5C 388.318,106.985 384.818,103.318 381.5,99.5C 387.819,92.6811 394.319,86.0144 401,79.5C 409.333,87.8333 417.667,96.1667 426,104.5C 420.698,149.949 414.365,195.282 407,240.5C 345.833,301.667 284.667,362.833 223.5,424C 213.933,428.929 204.6,428.596 195.5,423C 141.667,369.167 87.8333,315.333 34,261.5C 28.5888,250.503 29.5888,240.17 37,230.5C 96.8333,170.667 156.667,110.833 216.5,51C 259.966,44.5296 303.299,38.0296 346.5,31.5 Z M 450.5,159.5 C 460.803,172.649 470.97,185.982 481,199.5C 481.667,285.167 481.667,370.833 481,456.5C 479.5,471.333 471.333,479.5 456.5,481C 383.167,481.667 309.833,481.667 236.5,481C 222.488,479.819 214.488,472.319 212.5,458.5C 226.325,458.062 238.325,453.228 248.5,444C 310.333,382.167 372.167,320.333 434,258.5C 436.523,254.931 437.856,250.931 438,246.5C 442.122,217.48 446.289,188.48 450.5,159.5 Z M 135.5,219.5 C 148.47,219.302 154.303,225.636 153,238.5C 144.45,251.389 135.45,251.723 126,239.5C 123.55,230.069 126.717,223.402 135.5,219.5 Z M 304.5,219.5 C 320.234,219.382 325.734,226.715 321,241.5C 313,250.833 305,250.833 297,241.5C 292.631,231.772 295.131,224.438 304.5,219.5 Z"/></g>
<g><path style="opacity:0.955" fill="#596882" d="M 254.5,112.5 C 269.654,111.479 276.154,118.479 274,133.5C 250.333,204.5 226.667,275.5 203,346.5C 197.394,355.111 189.894,357.277 180.5,353C 174.185,348.394 172.019,342.228 174,334.5C 197.802,262.759 221.802,191.093 246,119.5C 248.464,116.519 251.297,114.186 254.5,112.5 Z"/></g>
<g><path style="opacity:0.961" fill="#596882" d="M 130.5,188.5 C 167.647,187.48 185.481,205.48 184,242.5C 175.858,270.33 157.358,282.164 128.5,278C 102.427,269.024 91.2601,250.857 95,223.5C 100.115,204.884 111.948,193.218 130.5,188.5 Z M 135.5,219.5 C 126.717,223.402 123.55,230.069 126,239.5C 135.45,251.723 144.45,251.389 153,238.5C 154.303,225.636 148.47,219.302 135.5,219.5 Z"/></g>
<g><path style="opacity:0.961" fill="#596882" d="M 300.5,188.5 C 326.666,185.987 344.166,196.987 353,221.5C 357.832,250.023 346.665,268.857 319.5,278C 292.303,282.109 274.136,271.276 265,245.5C 260.618,216.244 272.451,197.244 300.5,188.5 Z M 304.5,219.5 C 295.131,224.438 292.631,231.772 297,241.5C 305,250.833 313,250.833 321,241.5C 325.734,226.715 320.234,219.382 304.5,219.5 Z"/></g>
</svg>
